<?xml version="1.0" encoding="UTF-8"?>
<svg id="_Слой_2" data-name="Слой 2" xmlns="http://www.w3.org/2000/svg" viewBox="0 0 117.7176 103.22113">
  <defs>
    <style>
      .cls-1 {
        fill: #000000;
      }
    </style>
  </defs>
  <g id="_Слой_1-2" data-name="Слой 1">
    <g id="gatti" class="cls-2">
      <g>
        <path fill="currentColor" id="_шляпа" data-name="шляпа" d="m0,66.84795c1.67646-.84673,2.91626-1.55652,4.22034-2.1166,4.80567-2.06392,9.6651-4.00569,14.43668-6.1444,2.11818-.94942,4.11314-2.19811,6.0857-3.43582.75739-.47524,1.22077-1.40325,1.95591-1.93399.78344-.56557,1.68576-1.09203,2.61287-1.31139,4.10842-.97202,8.24454-1.82703,12.37035-2.72578.67672-.14743,1.34969-.31307,2.0283-.45084,1.57594-.31996,2.84551-1.05142,4.04255-2.20251,3.41727-3.2859,7.73149-4.91135,12.24166-6.04263,5.90251-1.48052,11.94223-1.93806,17.99129-2.28386,3.14948-.18002,6.30177-.31189,9.62143-.47374.4315-1.16852.87757-2.37639,1.38401-3.74781-.60677-.11864-1.06996-.2589-1.54102-.29398-9.77284-.72765-19.5528-1.02018-29.31874-.0004-3.69375.3857-7.36128,1.05079-11.02589,1.67562-1.85983.31711-2.02183.46926-2.68791-1.35227-1.81464-4.96236-3.53971-9.96083-5.15266-14.99231-.94136-2.93642-1.59777-5.96408-2.38588-8.94978-.43636-1.65305-.64105-1.83509-2.32727-1.81332-1.30417.01683-2.60737.10815-4.1507.17706,4.82274,3.81047,6.48621,9.19339,8.00173,14.59541,1.23853,4.41468,2.19534,8.90839,3.3031,13.47425-5.8526,2.67373-11.47502,5.40485-15.24431,10.7722l-.37067-.13545c-.38658-2.05206-.88868-4.09023-1.13745-6.15884-.6702-5.57186-1.34247-11.14775-1.79826-16.73961-.29795-3.65566.04501-7.311,1.12247-10.86155,1.1054-3.64265,3.69695-5.58069,7.2714-6.4018.42553-.09775.93077-.25399,1.30116-.11747,1.83679.67704,3.25083-.26045,4.77658-1.02669C44.57969,2.33789,51.85474-.05279,59.72737.00089c5.3042.03616,10.20448,1.47281,14.43224,4.84216,2.05532,1.63806,3.79825,3.5475,4.91924,5.92275,3.17353,6.72419,6.27809,13.48092,9.40758,20.22589.28902.62294.56186,1.25338.91287,2.03838,5.51574-9.42386,13.85785-14.37741,24.26614-16.50967.0903.33619.21256.55708.19715.76788-.44445,6.06462.7623,11.92737,2.11902,17.77863.95469,4.11736,1.91631,8.24264,1.70704,12.5194-.11042,2.25727-.41466,4.4776-1.45368,6.65574-1.52344-.54651-2.58979-1.54899-3.41597-2.70782-1.86552-2.61656-3.60466-5.32346-5.38696-7.99911-.9088-1.36443-1.74747-2.77987-2.7282-4.08969-.3277-.43771-.99748-.61933-1.5109-.91801-.24434.48022-.62866.9389-.70646,1.44474-.22644,1.47192-.33024,2.96271-.63536,4.47346-1.39118-2.05316-1.60036-4.48501-2.20742-6.77232-.62643-2.36044-1.11664-4.75704-1.96151-7.12181-.14918.83169-.26455,1.67112-.45315,2.49378-1.00617,4.38979-3.12986,7.56066-7.85634,8.94215-9.68874,2.83187-18.15297,7.82613-24.87842,15.50423-2.73754,3.12529-6.28577,5.02666-10.01981,6.61687-6.06766,2.58402-12.41314,4.28694-18.9365,5.06817-5.5008.65878-11.06026,1.04166-16.59918,1.11017-5.62269.06953-11.19525-.7617-16.57821-2.53739-.64207-.2118-1.26517-.481-2.36058-.90152ZM45.13058,15.69476c1.49938-5.89635,4.91998-8.58805,10.82647-8.43337,5.56978.14587,10.43882,2.16131,14.54497,5.95917.38279.35405.76544.70824,1.41366,1.30804-.13327-.60593-.1552-.8496-.23976-1.06912-2.94288-7.63823-12.53379-12.8711-20.50591-11.15524-7.42452,1.598-8.62368,8.15269-6.03944,13.39052Zm-20.16859,9.05457c.10094-.02115.20187-.0423.30281-.06345.50538-2.07031.85602-4.19591,1.56919-6.19194.49571-1.38714,1.34603-2.71721,2.30058-3.85176,1.01894-1.21103,2.37659-1.04087,3.39738.19365.46582.56335.81984,1.21914,1.22461,1.83299l.42216-.13361c-.3394-1.34826-.57166-2.7358-1.04767-4.03399-.49797-1.35835-1.50276-2.523-2.99937-2.55699-1.3162-.02989-1.9517,1.26022-2.51231,2.31278-1.41144,2.64992-2.07267,5.53046-2.40069,8.48912-.14715,1.32757-.17481,2.66838-.25669,4.00318Z"/>
        </g>
    </g>
  </g>
</svg>